<svg width="59" height="59" viewBox="0 0 59 59" fill="none" xmlns="http://www.w3.org/2000/svg">
<path d="M19.245 20.2292C15.7879 20.2292 13.1072 21.8326 13.1072 26.1415V32.7802C13.1072 37.0893 15.7879 38.6925 19.245 38.6925C22.7021 38.6925 25.4078 37.0891 25.4078 32.7802V26.1415C25.408 21.8324 22.7023 20.2292 19.245 20.2292ZM21.4997 32.7802C21.4997 34.5089 20.6479 35.2854 19.245 35.2854C17.8421 35.2854 17.0153 34.5087 17.0153 32.7802V26.1415C17.0153 24.4128 17.8421 23.6363 19.245 23.6363C20.6478 23.6363 21.4997 24.413 21.4997 26.1415V32.7802Z" fill="#A6CE38"/>
<path d="M19.245 20.2292C15.7879 20.2292 13.1072 21.8326 13.1072 26.1415V32.7802C13.1072 37.0893 15.7879 38.6925 19.245 38.6925C22.7021 38.6925 25.4078 37.0891 25.4078 32.7802V26.1415C25.408 21.8324 22.7023 20.2292 19.245 20.2292ZM21.4997 32.7802C21.4997 34.5089 20.6479 35.2854 19.245 35.2854C17.8421 35.2854 17.0153 34.5087 17.0153 32.7802V26.1415C17.0153 24.4128 17.8421 23.6363 19.245 23.6363C20.6478 23.6363 21.4997 24.413 21.4997 26.1415V32.7802Z" stroke="#A6CE39"/>
<path d="M30.7434 20.2292C28.614 20.2292 26.9855 21.1311 26.9855 23.6114V27.1688C26.9855 29.6491 28.614 30.5509 30.7434 30.5509C32.848 30.5509 34.5013 29.6491 34.5013 27.1688V23.6114C34.5013 21.1311 32.8477 20.2292 30.7434 20.2292ZM31.9959 27.1686C31.9959 27.9954 31.5199 28.3712 30.7432 28.3712C29.9664 28.3712 29.5158 27.9954 29.5158 27.1686V23.6112C29.5158 22.7843 29.9666 22.4085 30.7432 22.4085C31.5199 22.4085 31.9959 22.7843 31.9959 23.6112V27.1686Z" fill="#A6CE38"/>
<path d="M30.7434 20.2292C28.614 20.2292 26.9855 21.1311 26.9855 23.6114V27.1688C26.9855 29.6491 28.614 30.5509 30.7434 30.5509C32.848 30.5509 34.5013 29.6491 34.5013 27.1688V23.6114C34.5013 21.1311 32.8477 20.2292 30.7434 20.2292ZM31.9959 27.1686C31.9959 27.9954 31.5199 28.3712 30.7432 28.3712C29.9664 28.3712 29.5158 27.9954 29.5158 27.1686V23.6112C29.5158 22.7843 29.9666 22.4085 30.7432 22.4085C31.5199 22.4085 31.9959 22.7843 31.9959 23.6112V27.1686Z" stroke="#A6CE39"/>
<path d="M42.2425 28.2959C40.1131 28.2959 38.4846 29.1977 38.4846 31.678V35.2354C38.4846 37.7157 40.1131 38.6175 42.2425 38.6175C44.347 38.6175 46.0005 37.7157 46.0005 35.2354V31.678C46.0005 29.1977 44.347 28.2959 42.2425 28.2959ZM43.4952 35.2352C43.4952 36.0621 43.0191 36.4379 42.2425 36.4379C41.466 36.4379 41.0152 36.0621 41.0152 35.2352V31.6778C41.0152 30.851 41.466 30.4752 42.2425 30.4752C43.0191 30.4752 43.4952 30.851 43.4952 31.6778V35.2352Z" fill="#A6CE38"/>
<path d="M42.2425 28.2959C40.1131 28.2959 38.4846 29.1977 38.4846 31.678V35.2354C38.4846 37.7157 40.1131 38.6175 42.2425 38.6175C44.347 38.6175 46.0005 37.7157 46.0005 35.2354V31.678C46.0005 29.1977 44.347 28.2959 42.2425 28.2959ZM43.4952 35.2352C43.4952 36.0621 43.0191 36.4379 42.2425 36.4379C41.466 36.4379 41.0152 36.0621 41.0152 35.2352V31.6778C41.0152 30.851 41.466 30.4752 42.2425 30.4752C43.0191 30.4752 43.4952 30.851 43.4952 31.6778V35.2352Z" stroke="#A6CE39"/>
<path d="M40.7897 19.2019C40.3389 19.2019 39.9379 19.4024 39.7375 19.8283L30.944 37.891C30.8688 38.0414 30.8187 38.2165 30.8187 38.3669C30.8187 38.9933 31.3699 39.6946 32.2214 39.6946C32.6976 39.6946 33.1735 39.4441 33.3489 39.0683L42.1673 21.0056C42.2425 20.8552 42.2676 20.68 42.2676 20.5296C42.2678 19.7279 41.4911 19.2019 40.7897 19.2019Z" fill="#A6CE38"/>
<path d="M40.7897 19.2019C40.3389 19.2019 39.9379 19.4024 39.7375 19.8283L30.944 37.891C30.8688 38.0414 30.8187 38.2165 30.8187 38.3669C30.8187 38.9933 31.3699 39.6946 32.2214 39.6946C32.6976 39.6946 33.1735 39.4441 33.3489 39.0683L42.1673 21.0056C42.2425 20.8552 42.2676 20.68 42.2676 20.5296C42.2678 19.7279 41.4911 19.2019 40.7897 19.2019Z" stroke="#A6CE39"/>
<path d="M53.7147 14.7827L53.6656 14.8698C56.4457 16.438 57.7887 19.6808 56.9316 22.7558C56.6938 23.6091 56.878 24.5345 57.4242 25.232C59.3925 27.745 59.3925 31.255 57.4246 33.7681C56.8781 34.4654 56.6941 35.391 56.932 36.2443C57.7889 39.3194 56.446 42.562 53.6658 44.1303L53.715 44.2174L53.6658 44.1303C52.8943 44.5657 52.3702 45.3502 52.2633 46.2297C51.8785 49.3988 49.3969 51.8806 46.2284 52.2655C45.3489 52.3722 44.5644 52.8966 44.1291 53.6683C42.9044 55.8399 40.595 57.1893 38.1025 57.1894C37.3887 57.1894 36.9387 57.1015 36.57 57.0135C36.5137 57 36.4589 56.9864 36.405 56.9731C36.1064 56.8991 35.8352 56.832 35.4934 56.832C34.8708 56.832 34.2582 57.0432 33.7681 57.4273C32.556 58.3769 31.0403 58.9 29.5006 58.9C27.961 58.9 26.4452 58.3769 25.2332 57.4273C24.743 57.0433 24.1305 56.832 23.5079 56.832C23.1754 56.832 22.9009 56.8988 22.5982 56.9726C22.5429 56.986 22.4866 56.9998 22.4288 57.0133C22.0537 57.1015 21.5986 57.1894 20.8989 57.1894C18.4064 57.1894 16.097 55.8401 14.8721 53.6682L14.785 53.7173L14.8721 53.6682C14.4368 52.8966 13.6524 52.3724 12.773 52.2655C9.60433 51.8806 7.12291 49.3987 6.73805 46.2297C6.63131 45.3502 6.10704 44.5656 5.33541 44.1302C2.55536 42.562 1.2123 39.3193 2.06939 36.2442C2.30725 35.3909 2.12301 34.4655 1.5768 33.768L1.49807 33.8296L1.57679 33.768C-0.391613 31.255 -0.391613 27.745 1.57679 25.232C2.12326 24.5347 2.30724 23.6092 2.06939 22.7558C1.21242 19.6808 2.55536 16.4381 5.33552 14.8698L5.33553 14.8698C6.10705 14.4344 6.63119 13.65 6.73804 12.7704C7.12291 9.6013 9.60444 7.11956 12.773 6.73464C13.6525 6.62789 14.4369 6.10355 14.8722 5.33182L14.8722 5.33181C16.4139 2.59788 19.6515 1.19972 22.7571 2.06537L22.784 1.96904L22.7571 2.06537C23.6369 2.31054 24.5542 2.10467 25.2331 1.5727C26.4451 0.623114 27.9609 0.1 29.5005 0.1C31.0401 0.1 32.5559 0.623001 33.768 1.57257C34.4485 2.10588 35.3663 2.30983 36.244 2.06525L36.2172 1.96892L36.244 2.06525C39.3444 1.20096 42.5845 2.59312 44.1289 5.33181L44.216 5.28269L44.1289 5.33182C44.5642 6.10344 45.3486 6.62766 46.228 6.73453C49.3967 7.11944 51.8781 9.6013 52.263 12.7703C52.3697 13.6499 52.894 14.4344 53.6656 14.8698L53.7147 14.7827ZM5.56399 37.2187L5.66032 37.2455L5.56399 37.2187C5.15651 38.6812 5.79536 40.2238 7.11752 40.9697C8.88967 41.9696 10.0942 43.7726 10.3395 45.7924C10.5226 47.2995 11.7031 48.4803 13.21 48.6633C15.2296 48.9087 17.0323 50.1133 18.032 51.8856C18.6147 52.9191 19.7131 53.5609 20.8985 53.5609C21.3035 53.5609 21.596 53.4879 21.9093 53.4098C21.9499 53.3997 21.9908 53.3895 22.0323 53.3793C22.3931 53.2913 22.8157 53.2035 23.5075 53.2035C24.9373 53.2035 26.3449 53.6893 27.4704 54.5711C28.0552 55.0293 28.7575 55.2717 29.5003 55.2717C30.2431 55.2717 30.9454 55.0292 31.53 54.5711C32.6556 53.6893 34.0631 53.2035 35.4929 53.2035C36.1849 53.2035 36.6076 53.2913 36.9684 53.3793C37.0101 53.3895 37.0511 53.3997 37.0918 53.4099C37.4049 53.488 37.6973 53.5609 38.1018 53.5609C39.2874 53.5608 40.3858 52.919 40.9683 51.8857C41.9682 50.1133 43.7709 48.9087 45.7904 48.6633C47.2974 48.4802 48.478 47.2995 48.661 45.7924C48.9063 43.7725 50.1108 41.9696 51.8828 40.9698C53.2051 40.2239 53.8441 38.6811 53.4364 37.2187C52.8901 35.2587 53.3133 33.1318 54.5678 31.5301C55.504 30.3349 55.504 28.6652 54.5678 27.4699C53.3133 25.8682 52.8901 23.7413 53.4364 21.7813L53.3401 21.7545L53.4365 21.7813C53.8439 20.3188 53.2051 18.7763 51.8829 18.0304C50.1108 17.0304 48.9063 15.2274 48.661 13.2076C48.4779 11.7005 47.2974 10.5197 45.7904 10.3367C43.7708 10.0914 41.9681 8.88671 40.9685 7.11444C40.2324 5.80931 38.6916 5.14988 37.2179 5.56058L37.2447 5.65691L37.2178 5.56058C35.2056 6.1216 33.0964 5.65615 31.53 4.42904C30.9453 3.97085 30.243 3.72847 29.5002 3.72847C28.7573 3.72847 28.0551 3.97097 27.4704 4.42904C25.9052 5.65535 23.7972 6.12218 21.7826 5.56058L21.7557 5.65691L21.7826 5.56058C20.3075 5.14953 18.7672 5.81062 18.0321 7.11433C17.0323 8.88672 15.2295 10.0914 13.21 10.3367C11.7031 10.5198 10.5225 11.7005 10.3395 13.2076C10.0942 15.2275 8.88967 17.0305 7.11764 18.0302C5.79536 18.7761 5.15639 20.3189 5.56399 21.7813C6.11031 23.7414 5.68714 25.8682 4.4326 27.4699C3.49642 28.6651 3.49642 30.3349 4.4326 31.5301C5.68714 33.1318 6.11031 35.2587 5.56399 37.2187Z" fill="#A6CE38" stroke="#F8FBF0" stroke-width="0.2"/>
</svg>
