<svg width="64" height="56" viewBox="0 0 64 56" fill="none" xmlns="http://www.w3.org/2000/svg">
<path d="M45.257 30.2892H36.6011C34.2321 30.2892 32.3057 32.2156 32.3057 34.5846V41.223C32.3057 43.592 34.2321 45.5184 36.6011 45.5184H45.257C47.626 45.5184 49.5525 43.592 49.5525 41.223V34.5846C49.5525 32.2156 47.626 30.2892 45.257 30.2892ZM46.4285 41.223C46.4285 41.8738 45.8948 42.3945 45.257 42.3945H36.6011C35.9503 42.3945 35.4296 41.8608 35.4296 41.223V34.5846C35.4296 33.9338 35.9633 33.4131 36.6011 33.4131H45.257C45.9079 33.4131 46.4285 33.9468 46.4285 34.5846V41.223Z" fill="#A6CE38"/>
<path d="M63.7025 18.223C63.7025 17.9497 63.6375 17.6894 63.4943 17.4551L54.0183 0.794004C53.745 0.312395 53.2243 0 52.6646 0H11.0249C10.4652 0 9.94457 0.299379 9.67123 0.794004L0.208263 17.4551C0.0780988 17.6894 0 17.9497 0 18.223C0 21.9588 2.25185 25.1608 5.46691 26.5796V54.0574C5.46691 54.9164 6.1698 55.6193 7.02889 55.6193H15.6588C15.6718 55.6193 15.6848 55.6193 15.6978 55.6193H27.8032C27.8162 55.6193 27.8292 55.6193 27.8422 55.6193H56.6606C57.5197 55.6193 58.2226 54.9164 58.2226 54.0574V26.7749C58.2226 26.7098 58.2226 26.6577 58.2096 26.6056C61.4377 25.1868 63.7025 21.9718 63.7025 18.223ZM11.9361 3.13697H51.7534L59.1598 16.1664H4.54274L11.9361 3.13697ZM45.3363 19.2774C44.8417 22.0889 42.3816 24.2236 39.4268 24.2236C36.4721 24.2236 34.012 22.0889 33.5174 19.2774H45.3363ZM30.1982 19.2774C29.7036 22.0889 27.2434 24.2236 24.2887 24.2236C21.334 24.2236 18.8739 22.0889 18.3662 19.2774H30.1982ZM3.22808 19.2774H15.06C14.5654 22.0889 12.0923 24.2236 9.13755 24.2236C6.18282 24.2366 3.72271 22.0889 3.22808 19.2774ZM26.2412 52.4954H17.2598V35.6391C17.2598 34.4155 18.2491 33.4133 19.4856 33.4133H24.0284C25.2519 33.4133 26.2542 34.4025 26.2542 35.6391V52.4954H26.2412ZM55.0987 52.4954H29.3651V35.6391C29.3651 32.6973 26.9701 30.2893 24.0154 30.2893H19.4726C16.5309 30.2893 14.1229 32.6843 14.1229 35.6391V52.5084H8.59086V27.3476C8.77309 27.3606 8.95532 27.3606 9.13755 27.3606C12.2875 27.3606 15.0731 25.7596 16.7131 23.3255C18.3532 25.7596 21.1387 27.3606 24.2887 27.3606C27.4387 27.3606 30.2112 25.7596 31.8643 23.3255C33.5044 25.7596 36.2899 27.3606 39.4268 27.3606C42.5768 27.3606 45.3493 25.7596 46.9894 23.3255C48.6295 25.7596 51.415 27.3606 54.565 27.3606C54.7472 27.3606 54.9164 27.3476 55.0987 27.3476V52.4954ZM54.565 24.2366C51.6103 24.2366 49.1501 22.1019 48.6555 19.2904H60.4875C59.9798 22.0889 57.5197 24.2366 54.565 24.2366Z" fill="#A6CE38"/>
</svg>
