<svg width="59" height="59" viewBox="0 0 59 59" fill="none" xmlns="http://www.w3.org/2000/svg">
<path d="M52.4304 21.5656L52.4392 21.5929L52.4673 21.599L56.9507 22.5736C57.7288 22.7431 58.2838 23.4317 58.2838 24.228V34.1054C58.2838 34.9016 57.7288 35.5903 56.9507 35.7597L52.4673 36.7344L52.4392 36.7404L52.4304 36.7677C52.0413 37.9589 51.5594 39.1207 50.9905 40.2399L50.9775 40.2655L50.993 40.2896L53.475 44.1504C53.9056 44.8205 53.8109 45.7002 53.2481 46.263L46.2635 53.2476L46.2988 53.2829L46.2635 53.2476C45.7007 53.8108 44.821 53.9051 44.1509 53.4745L40.2901 50.9925L40.266 50.977L40.2404 50.99C39.1212 51.5589 37.9593 52.0408 36.7682 52.4299L36.7409 52.4388L36.7348 52.4668L35.7602 56.9502C35.5912 57.7283 34.9021 58.2833 34.1059 58.2833H24.2285C23.4322 58.2833 22.7431 57.7283 22.5741 56.9502L22.5253 56.9608L22.5741 56.9502L21.5995 52.4668L21.5934 52.4388L21.5661 52.4299C20.375 52.0408 19.2131 51.5589 18.0939 50.99L18.0683 50.977L18.0442 50.9925L14.1834 53.4745C13.5134 53.9051 12.6337 53.8104 12.0708 53.2476L5.08625 46.263C4.52343 45.7002 4.42875 44.8205 4.8593 44.1504L7.34133 40.2896L7.35684 40.2655L7.34385 40.2399C6.77491 39.1207 6.29302 37.9589 5.90396 36.7677L5.89506 36.7404L5.86705 36.7344L1.38366 35.7597C0.605533 35.5903 0.0504883 34.9016 0.0504883 34.1054V24.228C0.0504883 23.4317 0.605533 22.7431 1.38366 22.5736L5.86705 21.599L5.89506 21.5929L5.90396 21.5656C6.29302 20.3745 6.77491 19.2126 7.34385 18.0934L7.35684 18.0678L7.34133 18.0437L4.85931 14.1829C4.42875 13.5129 4.52343 12.6332 5.08625 12.0703L12.0708 5.08576C12.6337 4.52294 13.5134 4.42826 14.1834 4.85882L18.0442 7.34085L18.0683 7.35636L18.0939 7.34336C19.2131 6.77442 20.375 6.29253 21.5661 5.90347L21.5934 5.89457L21.5995 5.86656L22.5741 1.38315L22.5253 1.37253L22.5741 1.38314C22.7431 0.605061 23.4322 0.05 24.2285 0.05H34.1059C34.9021 0.05 35.5912 0.605061 35.7602 1.38314L36.7348 5.86656L36.7409 5.89457L36.7682 5.90347C37.9593 6.29253 39.1212 6.77442 40.2404 7.34336L40.266 7.35636L40.2901 7.34085L44.1509 4.85882C44.821 4.42826 45.7007 4.52294 46.2635 5.08576L53.2481 12.0703C53.8109 12.6332 53.9056 13.5129 53.475 14.1829L50.993 18.0437L50.9775 18.0678L50.9905 18.0934C51.5594 19.2126 52.0413 20.3745 52.4304 21.5656ZM54.8584 32.7492L54.8978 32.7406V32.7003V25.633V25.5927L54.8584 25.5841L50.747 24.6905C50.1336 24.5569 49.6447 24.0952 49.4761 23.4909C49.0229 21.8666 48.372 20.2958 47.54 18.8223C47.2314 18.2755 47.2508 17.6029 47.5906 17.0746L47.5485 17.0476L47.5906 17.0746L49.8666 13.5338L49.8883 13.4999L49.8599 13.4714L44.8624 8.47352L44.8339 8.44502L44.8 8.46681L41.2592 10.7432C40.731 11.0826 40.0583 11.102 39.5115 10.7934L39.4869 10.8369L39.5115 10.7934C38.038 9.96183 36.4672 9.3105 34.8429 8.85769C34.2386 8.68911 33.7769 8.19977 33.6433 7.58635L32.7497 3.47544L32.7411 3.43606H32.7008H25.6335H25.5932L25.5846 3.47544L24.691 7.58633C24.5574 8.19977 24.0957 8.68911 23.4914 8.85769C21.8671 9.3105 20.2963 9.96183 18.8224 10.7934L18.8223 10.7934C18.2759 11.102 17.6033 11.083 17.0751 10.7432L17.0481 10.7853L17.0751 10.7432L13.5338 8.46681L13.4999 8.44502L13.4714 8.47352L8.474 13.4714L8.44551 13.4999L8.4673 13.5338L10.7437 17.0746L10.7858 17.0476L10.7437 17.0746C11.0835 17.6028 11.1025 18.2755 10.7939 18.8223C9.96232 20.2958 9.31099 21.8666 8.85818 23.4909C8.6896 24.0952 8.20026 24.5569 7.58682 24.6905L3.47593 25.5841L3.43655 25.5927V25.633V32.7003V32.7406L3.47593 32.7492L7.58726 33.6429C8.20068 33.7764 8.68959 34.2381 8.85818 34.8424C9.31144 36.4668 9.96276 38.0375 10.7943 39.511L10.8379 39.4864L10.7943 39.511C11.103 40.0578 11.0835 40.7305 10.7437 41.2587L10.7858 41.2858L10.7437 41.2587L8.46775 44.7995L8.44596 44.8334L8.47445 44.8619L13.4719 49.8598L13.5004 49.8883L13.5343 49.8665L17.0751 47.5901C17.6033 47.2508 18.276 47.2313 18.8228 47.54C20.2963 48.3715 21.8671 49.0228 23.4914 49.4756C24.0957 49.6442 24.5574 50.1336 24.691 50.747L25.5846 54.8579L25.5932 54.8973H25.6335H32.7008H32.7411L32.7497 54.8579L33.6433 50.747C33.7769 50.1336 34.2386 49.6442 34.8429 49.4756C36.4672 49.0228 38.038 48.3715 39.5119 47.54L39.512 47.5399C40.0584 47.2313 40.731 47.2503 41.2592 47.5901L41.2863 47.548L41.2592 47.5901L44.8005 49.8665L44.8344 49.8883L44.8629 49.8598L49.8603 44.8619L49.8888 44.8334L49.867 44.7995L47.5906 41.2587C47.2508 40.7305 47.2318 40.0579 47.5404 39.511C48.372 38.0375 49.0233 36.4668 49.4761 34.8424C49.6447 34.2381 50.1341 33.7764 50.7475 33.6429L54.8584 32.7492Z" fill="#A6CE38" stroke="#F7FBED" stroke-width="0.1"/>
<path d="M34.8023 26.986V27.036H34.8523H38.5527C38.7739 27.036 38.9505 27.2092 38.9505 27.4199V29.5839C38.9505 29.7945 38.774 29.968 38.5524 29.968H34.852H34.802V30.018V31.6772V31.7272H34.852H38.5524C38.7736 31.7272 38.9502 31.9005 38.9502 32.1112V34.2751C38.9502 34.4857 38.7737 34.6591 38.5524 34.6591H34.852H34.802V34.7091V40.5661C34.802 40.7766 34.6256 40.95 34.4042 40.95H31.1394C30.9182 40.95 30.7416 40.7768 30.7416 40.5661V34.7091V34.6591H30.6916H26.9914C26.7702 34.6591 26.5936 34.4858 26.5936 34.2751V32.1112C26.5936 31.9006 26.7701 31.7272 26.9914 31.7272H30.6916H30.7416V31.6772V30.018V29.968H30.6916H26.9914C26.7702 29.968 26.5936 29.7947 26.5936 29.584V27.4201C26.5936 27.2095 26.7701 27.0361 26.9914 27.0361H30.6916H30.7416V26.9861V23.6813C30.7416 21.0498 27.8963 19.0577 25.0404 20.4272C24.5014 20.6856 24.0196 21.1667 23.6727 21.7256C23.3259 22.2844 23.1109 22.9258 23.1109 23.5084V24.1849C23.1109 24.3954 22.9344 24.5688 22.7131 24.5688H19.4483C19.2271 24.5688 19.0505 24.3956 19.0505 24.1849V23.6811C19.0505 18.5827 24.2397 14.6315 29.7756 16.5379C32.8098 17.5828 34.8023 20.409 34.8023 23.5287V26.986Z" fill="#A6CE38" stroke="#F9FBF1" stroke-width="0.1"/>
</svg>
